<svg xmlns="http://www.w3.org/2000/svg" width="600" height="300" viewBox="0 0 600 300"><defs><linearGradient id="g" x1="0%" y1="0%" x2="100%" y2="100%"><stop offset="0%" style="stop-color:#E8F4FA"/><stop offset="100%" style="stop-color:#7EC8E3"/></linearGradient></defs><rect width="600" height="300" rx="8" fill="url(#g)"/><g transform="translate(276,76)" stroke="#131410" stroke-width="3" fill="none" stroke-linecap="round" stroke-linejoin="round"><path d="M28 4H12a4 4 0 0 0-4 4v32a4 4 0 0 0 4 4h24a4 4 0 0 0 4-4V16z"/><polyline points="28 4 28 16 40 16"/><line x1="32" y1="26" x2="16" y2="26"/><line x1="32" y1="34" x2="16" y2="34"/><polyline points="20 18 18 18 16 18"/></g><text x="300" y="210" text-anchor="middle" font-family="Inter,sans-serif" font-size="20" font-weight="600" fill="#131410">Orders</text></svg>
