<svg xmlns="http://www.w3.org/2000/svg" width="600" height="300" viewBox="0 0 600 300"><defs><linearGradient id="g" x1="0%" y1="0%" x2="100%" y2="100%"><stop offset="0%" style="stop-color:#E8F4FA"/><stop offset="100%" style="stop-color:#5BB8DB"/></linearGradient></defs><rect width="600" height="300" rx="8" fill="url(#g)"/><g transform="translate(276,80)" stroke="#131410" stroke-width="3" fill="none" stroke-linecap="round" stroke-linejoin="round"><circle cx="24" cy="24" r="6"/><path d="M38.8 30a3.3 3.3 0 0 0 .66 3.64l.12.12a4 4 0 1 1-5.66 5.66l-.12-.12a3.3 3.3 0 0 0-3.64-.66 3.3 3.3 0 0 0-2 3.02V42a4 4 0 0 1-8 0v-.18a3.3 3.3 0 0 0-2.16-3.02 3.3 3.3 0 0 0-3.64.66l-.12.12a4 4 0 1 1-5.66-5.66l.12-.12A3.3 3.3 0 0 0 9.36 30a3.3 3.3 0 0 0-3.02-2H6a4 4 0 0 1 0-8h.18a3.3 3.3 0 0 0 3.02-2.16 3.3 3.3 0 0 0-.66-3.64l-.12-.12a4 4 0 1 1 5.66-5.66l.12.12a3.3 3.3 0 0 0 3.64.66h.16a3.3 3.3 0 0 0 2-3.02V6a4 4 0 0 1 8 0v.18a3.3 3.3 0 0 0 2 3.02 3.3 3.3 0 0 0 3.64-.66l.12-.12a4 4 0 1 1 5.66 5.66l-.12.12a3.3 3.3 0 0 0-.66 3.64v.16a3.3 3.3 0 0 0 3.02 2H42a4 4 0 0 1 0 8h-.18a3.3 3.3 0 0 0-3.02 2z"/></g><text x="300" y="210" text-anchor="middle" font-family="Inter,sans-serif" font-size="20" font-weight="600" fill="#131410">Settings</text></svg>
